<svg xmlns="http://www.w3.org/2000/svg" viewBox="0 0 1358.12 442.77"><g id="Layer_2" data-name="Layer 2"><g id="_0" data-name="0"><polygon points="280 42.77 40 42.77 80 2.77 240 2.77 264.22 26.99 280 42.77"/><polygon points="280 402.77 240 442.77 80 442.77 40 402.77 280 402.77"/><polygon points="40 242.77 40 402.77 27.46 390.23 0 362.77 0 202.77 40 242.77"/><polygon points="0 162.77 0 82.77 40 42.77 40 202.77 0 162.77"/><polygon points="320 82.77 320 242.77 280 202.77 280 42.77 320 82.77"/><polygon points="320 282.77 320 362.77 280 402.77 280 242.77 320 282.77"/><polygon points="292.5 55.27 280 74.44 66.02 402.77 55.75 418.52 40 402.77 27.46 390.23 40 371 253.93 42.77 264.22 26.99 280 42.77 292.5 55.27"/></g><g id="Tagline"><path d="M452.72,337.42H464.4l19.92,36,6.62,13.68h.4c-.55-6.63-1.46-14.74-1.46-21.88V337.42h10.83v64.1H489l-19.91-36.09-6.63-13.62h-.39c.55,6.78,1.45,14.5,1.45,21.64v28.07H452.72Z"/><path d="M513.34,377.48c0-15.64,10.86-25.28,22.19-25.28,13,0,19.88,9.41,19.88,22.85a29.6,29.6,0,0,1-.49,5.49H524.36c.94,8.55,6.43,13.41,14.19,13.41a20.48,20.48,0,0,0,11.17-3.49l3.84,7a29.89,29.89,0,0,1-16.5,5.21C523.77,402.69,513.34,393.36,513.34,377.48Zm32.31-4.62c0-7.41-3.3-11.92-9.88-11.92-5.61,0-10.55,4.19-11.53,11.92Z"/><path d="M566.14,383.56V353.37h11.29v28.74c0,7.92,2.28,10.9,7.49,10.9,4.24,0,7-2,10.67-6.67v-33h11.29v48.15h-9.26l-.86-7.1h-.31c-4.24,5-8.9,8.27-15.49,8.27C570.65,402.69,566.14,395.71,566.14,383.56Z"/><path d="M623.36,385.29V362.35H616.5v-8.47l7.44-.51,1.34-13.13h9.37v13.13h12.27v9H634.65v22.92c0,5.66,2.19,8.44,6.82,8.44a15.42,15.42,0,0,0,5-1.09l1.92,8.31a31.33,31.33,0,0,1-9.84,1.76C627.47,402.69,623.36,395.67,623.36,385.29Z"/><path d="M657.54,353.37h9.25l.86,8.59H668c3.43-6.27,8.52-9.76,13.68-9.76a12.21,12.21,0,0,1,5.45,1l-2,9.8a16.34,16.34,0,0,0-4.94-.78c-3.84,0-8.47,2.62-11.37,9.95v29.37H657.54Z"/><path d="M689.45,388.58c0-10.31,8.54-15.68,28.3-17.8-.16-5.17-2.23-9.49-8.74-9.49-4.78,0-9.29,2.16-13.53,4.75l-4.15-7.53c5.29-3.33,12.11-6.31,19.76-6.31,12,0,17.95,7.41,17.95,20.81v28.51h-9.25l-.86-5.34h-.32c-4.31,3.69-9.25,6.51-14.93,6.51C695.25,402.69,689.45,397,689.45,388.58Zm28.3,0V377.8c-13,1.64-17.4,5.05-17.4,9.92,0,4.25,2.9,6.11,6.93,6.11S714.18,391.91,717.75,388.62Z"/><path d="M743.09,389.13V332.28h11.29v57.43c0,2.79,1.26,3.77,2.43,3.77a6.54,6.54,0,0,0,1.77-.2l1.41,8.43a15.81,15.81,0,0,1-6,1C746,402.69,743.09,397.52,743.09,389.13Z"/><path d="M788.94,338.56c0-3.81,3-6.4,7-6.4s7,2.59,7,6.4-3,6.39-7,6.39S788.94,342.28,788.94,338.56Zm1.29,14.81h11.29v48.15H790.23Z"/><path d="M811.61,396l5.25-7.18c4.28,3.34,8.41,5.37,13.29,5.37,5.26,0,7.73-2.47,7.73-5.76,0-4-5.22-5.84-10.35-7.8-6.31-2.37-13.53-6-13.53-14,0-8.35,6.75-14.39,17.53-14.39a25.92,25.92,0,0,1,16,5.76l-5.17,6.94c-3.37-2.47-6.77-4.2-10.55-4.2-4.84,0-7.13,2.32-7.13,5.34,0,3.8,4.86,5.25,10.07,7.17,6.51,2.43,13.8,5.57,13.8,14.54,0,8.28-6.55,14.94-18.7,14.94A30.1,30.1,0,0,1,811.61,396Z"/><path d="M879.21,353.37h9.25l.87,6.51h.31c4.31-4.19,9.21-7.68,15.8-7.68,10.31,0,14.82,7,14.82,19.13v30.19H909V372.78c0-7.92-2.28-10.9-7.49-10.9-4.23,0-7,2.08-11,6v33.64H879.21Z"/><path d="M931.41,377.48c0-16,10.89-25.28,22.89-25.28s22.89,9.25,22.89,25.28-10.89,25.21-22.89,25.21S931.41,393.44,931.41,377.48Zm34.18,0c0-9.64-4.23-16.07-11.29-16.07S943,367.84,943,377.48s4.23,16,11.29,16S965.59,387.13,965.59,377.48Z"/><path d="M988.4,385.29V362.35h-6.86v-8.47l7.45-.51,1.34-13.13h9.36v13.13H1012v9H999.69v22.92c0,5.66,2.2,8.44,6.83,8.44a15.3,15.3,0,0,0,5-1.09l1.93,8.31a31.33,31.33,0,0,1-9.84,1.76C992.52,402.69,988.4,395.67,988.4,385.29Z"/><path d="M1039.5,377.48c0-15.64,10.86-25.28,22.19-25.28,13,0,19.87,9.41,19.87,22.85a28.75,28.75,0,0,1-.49,5.49h-30.55c.94,8.55,6.42,13.41,14.19,13.41a20.51,20.51,0,0,0,11.17-3.49l3.84,7a29.91,29.91,0,0,1-16.5,5.21C1049.93,402.69,1039.5,393.36,1039.5,377.48Zm32.3-4.62c0-7.41-3.29-11.92-9.88-11.92-5.6,0-10.54,4.19-11.52,11.92Z"/><path d="M1092.85,353.37h9.25l.86,6.51h.32c4.31-4.19,9.21-7.68,15.8-7.68,10.31,0,14.82,7,14.82,19.13v30.19h-11.29V372.78c0-7.92-2.28-10.9-7.49-10.9-4.24,0-7,2.08-11,6v33.64h-11.29Z"/><path d="M1145,377.48c0-16,10.9-25.28,22.9-25.28s22.89,9.25,22.89,25.28-10.89,25.21-22.89,25.21S1145,393.44,1145,377.48Zm34.19,0c0-9.64-4.23-16.07-11.29-16.07s-11.29,6.43-11.29,16.07,4.23,16,11.29,16S1179.23,387.13,1179.23,377.48Z"/><path d="M1202,383.56V353.37h11.29v28.74c0,7.92,2.28,10.9,7.49,10.9,4.24,0,7-2,10.66-6.67v-33h11.29v48.15h-9.25l-.86-7.1h-.31c-4.24,5-8.9,8.27-15.49,8.27C1206.47,402.69,1202,395.71,1202,383.56Z"/><path d="M1254.2,410.26c0-4.06,2.51-7.61,6.94-10.27v-.4a9.12,9.12,0,0,1-4.36-8c0-3.73,2.55-7,5.34-9v-.39a16,16,0,0,1-6.36-12.7c0-11.06,8.94-17.29,19-17.29a21.72,21.72,0,0,1,7.13,1.17h17.21v8.39h-8.78a12.67,12.67,0,0,1,2.75,8.08c0,10.7-8.12,16.43-18.31,16.43a18.45,18.45,0,0,1-6.51-1.28,5.54,5.54,0,0,0-2.35,4.61c0,2.7,2,4.35,7.8,4.35h8.57c11.5,0,17.62,3.57,17.62,11.88,0,9.48-10,17-25.68,17C1262.74,422.8,1254.2,418.69,1254.2,410.26Zm34.81-2.59c0-3.72-3-4.82-8.49-4.82h-6.6a26.16,26.16,0,0,1-6.51-.67c-2.59,2-3.73,4.12-3.73,6.35,0,4.39,4.71,6.94,12.27,6.94C1283.72,415.47,1289,411.83,1289,407.67Zm-5.88-38.18c0-6-3.65-9.49-8.35-9.49s-8.35,3.41-8.35,9.49,3.72,9.68,8.35,9.68S1283.13,375.6,1283.13,369.49Z"/><path d="M1308.94,332.28h11.29V350.2l-.47,9.29c4-3.8,8.82-7.29,15.41-7.29,10.31,0,14.81,7,14.81,19.13v30.19h-11.29V372.78c0-7.92-2.27-10.9-7.48-10.9-4.24,0-7,2.08-11,6v33.64h-11.29Z"/></g><g id="Wordmark"><path d="M624.18,156.36c-9.11,39.55-38.82,68.56-91.85,68.56-68,0-100.89-49.29-100.89-111.38C431.44,53.75,465,0,534.2,0c56,0,84.13,32.56,89.85,69.13H583c-5.68-19.25-18.8-36.46-50.21-36.46-42.18,0-58.84,38.1-58.84,79.44,0,39,15,80.14,60.11,80.14,31.85,0,43.32-20.22,48.85-35.89Z"/><path d="M634.79,275.24v-2.13c0-24.24,10.73-42.45,39.06-59.61,19-11.45,24.66-14.7,24.66-24.43,0-8.88-4.78-15.86-16.89-15.86-11.11,0-17.33,7.2-19.23,18.71l-28.7-.22c1.72-24,19.81-42.29,49.21-42.29,35.92,0,46.87,22.6,46.87,38.5,0,20-9.67,28.7-32.86,41-9.85,5.6-23.12,14.77-26.66,23h64.28l-4.14,23.34Z"/><path d="M749.32,191.52,873.87,37.17H755.14v-34H920.73v33.5L799.57,187.94H926.24l-5.29,34H749.32Z"/><path d="M973.25,148.75c.1,24.62,12.45,45.71,36.61,45.71,21.09,0,27.44-9.45,32-20h39.42c-6,20.21-23.63,51.26-72.52,51.26-52.74,0-75.18-40.55-75.18-83,0-50.11,25.57-87.25,76.85-87.25,54.71,0,73.09,41,73.09,79.57a109,109,0,0,1-.54,13.64Zm70.79-25c-.32-21.56-9.86-39.36-33.77-39.36S976.35,101,974.2,123.74Z"/><path d="M1104.2,103.47c0-18.37-.09-32.2-.31-44.13h38.56c.54,3.95,1.08,19,1.08,30.1,7.62-19.73,25.65-33.52,53-33.9V93.47c-32.9-.23-53,11.46-53,54.87v73.6H1104.2Z"/><path d="M1358.12,140.32c0,48.41-28.58,85.42-79.48,85.42-49.14,0-78.15-36-78.15-84.66,0-49.45,29.42-85.54,80.17-85.54C1327.62,55.54,1358.12,89.33,1358.12,140.32Zm-117.58.32c0,32.77,14.92,53.82,39.14,53.82,24.63,0,38.38-20.61,38.38-53.6,0-34.89-13.88-54-39-54C1255,86.82,1240.54,105.34,1240.54,140.64Z"/></g></g></svg>