<svg xmlns="http://www.w3.org/2000/svg" width="11.818" height="9.455" viewBox="0 0 11.818 9.455"><defs><style>.a{fill:#fff;}</style></defs><path class="a" d="M16.215,10.721l-4.342-3.9A.226.226,0,0,0,11.7,6.75c-.135.006-.308.1-.308.236V8.942a.128.128,0,0,1-.111.121C6.966,9.7,5.147,12.8,4.5,16.022c-.025.127.154.245.237.145a7.951,7.951,0,0,1,6.523-3.173.148.148,0,0,1,.129.142v1.921a.266.266,0,0,0,.446.157l4.372-3.968A.32.32,0,0,0,16.32,11,.387.387,0,0,0,16.215,10.721Z" transform="translate(-4.502 -6.749)"/></svg>