<svg width="49" height="21" viewBox="0 0 49 21" fill="none" xmlns="http://www.w3.org/2000/svg">
<path id="Stripe" fill-rule="evenodd" clip-rule="evenodd" d="M26.4618 2.94381L23.1091 3.69104V0.868161L26.4618 0.134766V2.94381ZM33.434 4.50745C32.125 4.50745 31.2835 5.14398 30.816 5.58679L30.6424 4.72885H27.7038V20.8636L31.0431 20.1302L31.0565 16.2141C31.5373 16.5739 32.2453 17.0859 33.4207 17.0859C35.8116 17.0859 37.9888 15.0933 37.9888 10.7067C37.9755 6.6938 35.7716 4.50745 33.434 4.50745ZM32.6326 14.0416C31.8445 14.0416 31.377 13.751 31.0564 13.3912L31.0431 8.25745C31.3904 7.85616 31.8712 7.57941 32.6326 7.57941C33.8481 7.57941 34.6896 8.99085 34.6896 10.8036C34.6896 12.6578 33.8614 14.0416 32.6326 14.0416ZM48.5144 10.8451C48.5144 7.30266 46.8581 4.50745 43.6925 4.50745C40.5135 4.50745 38.5901 7.30266 38.5901 10.8174C38.5901 14.9826 40.8608 17.0859 44.1199 17.0859C45.7094 17.0859 46.9116 16.7123 47.8199 16.1864V13.4189C46.9116 13.8894 45.8697 14.18 44.5474 14.18C43.2517 14.18 42.103 13.7095 41.9561 12.0766H48.4877C48.4877 12.0004 48.4925 11.8274 48.498 11.6279L48.4981 11.6275L48.4981 11.6271L48.4981 11.6267L48.4981 11.6263L48.4981 11.626L48.4981 11.6255C48.5056 11.3547 48.5144 11.0359 48.5144 10.8451ZM41.9159 9.53053C41.9159 7.96687 42.8376 7.31651 43.6791 7.31651C44.4938 7.31651 45.3621 7.96687 45.3621 9.53053H41.9159ZM23.1089 4.74272H26.4616V16.8507H23.1089V4.74272ZM19.3025 4.7427L19.5162 5.76669C20.3043 4.27222 21.867 4.57665 22.2945 4.7427V7.92536C21.8804 7.77315 20.5447 7.57942 19.7566 8.64492V16.8506H16.4173V4.7427H19.3025ZM12.8374 1.73991L9.57822 2.45947L9.56486 13.5434C9.56486 15.5914 11.0475 17.0997 13.0244 17.0997C14.1197 17.0997 14.9211 16.8921 15.3619 16.6431V13.834C14.9345 14.0139 12.824 14.6504 12.824 12.6025V7.6901H15.3619V4.74268H12.824L12.8374 1.73991ZM4.94345 7.51025C4.23552 7.51025 3.80809 7.71782 3.80809 8.25749C3.80809 8.84672 4.5437 9.10592 5.45631 9.42748C6.94409 9.95171 8.90226 10.6417 8.91054 13.1975C8.91054 15.6745 7.00046 17.0998 4.22216 17.0998C3.07344 17.0998 1.81786 16.8645 0.57564 16.311V13.0176C1.69765 13.6542 3.11351 14.1247 4.22216 14.1247C4.97016 14.1247 5.50445 13.9171 5.50445 13.2806C5.50445 12.6279 4.70703 12.3295 3.74433 11.9694C2.27819 11.4209 0.428711 10.7289 0.428711 8.42354C0.428711 5.97427 2.23193 4.50748 4.94345 4.50748C6.0521 4.50748 7.14739 4.68737 8.25604 5.14401V8.39586C7.24089 7.82852 5.9586 7.51025 4.94345 7.51025Z" fill="#A3A7AE"/>
</svg>
